<svg viewBox="0 0 500 500" xmlns="http://www.w3.org/2000/svg"><g fill="#349ea3"><path d="m130.77 110.64-8.29-8.51a16.86 16.86 0 0 1 -14.23 15.36l8.49 7.91 304.54 283.91zm20.1 82.28v169.49a16.75 16.75 0 0 1 22.64-1.51v-113.71l183.49 178.91h31.62zm213.75-39.15a16.85 16.85 0 0 1 -11.72-4.71v114.71l-180.14-178.9h-34.89l237.69 232.67v-167.83a16.75 16.75 0 0 1 -10.94 4.06z"/><path d="m105.68 73.9a26.95 26.95 0 1 0 26.93 27 27 27 0 0 0 -26.93-27zm2.57 43.54a15.81 15.81 0 0 1 -2.57.2 16.87 16.87 0 1 1 16.85-16.88v1.32a16.86 16.86 0 0 1 -14.28 15.36z"/><path d="m364.62 110a26.95 26.95 0 0 0 0 53.88 26.45 26.45 0 0 0 10.94-2.33 26.93 26.93 0 0 0 -10.94-51.55zm10.94 39.74a16.85 16.85 0 1 1 5.91-12.81 16.84 16.84 0 0 1 -5.91 12.78z"/><path d="m173.55 349.26a27 27 0 1 0 16.45 24.82 26.95 26.95 0 0 0 -16.44-24.82zm-10.55 41.67a16.85 16.85 0 1 1 16.86-16.85 16.85 16.85 0 0 1 -16.86 16.85z"/></g></svg>